<?xml version="1.0" encoding="iso-8859-1"?>
<!-- Uploaded to: SVG Repo, www.svgrepo.com, Generator: SVG Repo Mixer Tools -->
<svg fill="#000000" height="800px" width="800px" version="1.1" id="Layer_1" xmlns="http://www.w3.org/2000/svg" xmlns:xlink="http://www.w3.org/1999/xlink" 
	 viewBox="0 0 345.5 345.5" xml:space="preserve">
<g id="XMLID_2_">
	<path id="XMLID_4_" d="M192.936,215.5c-8.643,0-17.063,0.965-25.165,2.781c-14.256-13.144-32.943-20.531-52.586-20.531
		c-42.801,0-77.622,34.821-77.622,77.623c0,8.284,6.716,15,15,15h32.602c-4.669,12.5-7.229,26.02-7.229,40.127
		c0,8.284,6.716,15,15,15h200c8.284,0,15-6.716,15-15C307.936,267.089,256.348,215.5,192.936,215.5z M69.983,260.373
		c6.298-18.933,24.181-32.623,45.202-32.623c6.617,0,13.052,1.382,18.964,3.949c-12.484,7.457-23.442,17.21-32.29,28.674H69.983z
		 M109.262,315.5c7.105-39.739,41.924-70,83.675-70s76.569,30.261,83.675,70H109.262z"/>
	<path id="XMLID_8_" d="M115.186,167.75c9.943,0,19.138-3.247,26.594-8.729c11.383,16.007,30.064,26.479,51.157,26.479
		c34.601,0,62.75-28.149,62.75-62.75S227.537,60,192.936,60c-21.093,0-39.774,10.472-51.157,26.479
		c-7.456-5.481-16.65-8.729-26.594-8.729c-24.813,0-45,20.187-45,45S90.372,167.75,115.186,167.75z M192.936,90
		c18.059,0,32.75,14.691,32.75,32.75s-14.691,32.75-32.75,32.75s-32.751-14.691-32.751-32.75S174.878,90,192.936,90z
		 M115.186,107.75c8.271,0,15,6.729,15,15s-6.729,15-15,15c-8.271,0-15-6.729-15-15S106.914,107.75,115.186,107.75z"/>
	<path id="XMLID_12_" d="M97.75,30c3.95,0,7.81-1.601,10.609-4.391c2.79-2.8,4.391-6.659,4.391-10.609s-1.601-7.82-4.391-10.61
		C105.56,1.6,101.7,0,97.75,0s-7.82,1.6-10.61,4.39c-2.79,2.8-4.39,6.66-4.39,10.61s1.6,7.81,4.39,10.609
		C89.93,28.399,93.8,30,97.75,30z"/>
	<path id="XMLID_13_" d="M172.75,30c3.95,0,7.81-1.601,10.609-4.391c2.79-2.8,4.391-6.659,4.391-10.609s-1.601-7.811-4.391-10.61
		C180.56,1.6,176.7,0,172.75,0s-7.82,1.6-10.61,4.39c-2.79,2.8-4.39,6.66-4.39,10.61s1.6,7.81,4.39,10.609
		C164.939,28.399,168.8,30,172.75,30z"/>
	<path id="XMLID_14_" d="M247.75,30c3.95,0,7.81-1.601,10.609-4.391c2.79-2.8,4.391-6.659,4.391-10.609s-1.601-7.811-4.391-10.61
		C255.56,1.6,251.7,0,247.75,0s-7.811,1.6-10.61,4.39c-2.79,2.8-4.39,6.66-4.39,10.61s1.6,7.81,4.39,10.609
		C239.939,28.399,243.8,30,247.75,30z"/>
</g>
</svg>